# xmcd CD database file
#
# Track frame offsets:
#	180
#	14377
#	26864
#	39716
#	52424
#	64474
#	73493
#	86403
#	98361
#	109494
#	122694
#	135297
#	146614
#	159736
#	172233
#	182304
#	195385
#	208184
#	223882
#	235593
#	247300
#	259268
#	272601
#	284732
#	297660
#	311620
#
# Disc length: 4325 seconds
#
# Revision: 0
# Processed by: cddbd v1.5.2PL0 Copyright (c) Steve Scherf et al.
# Submitted via: CDex 1.51
#
DISCID=a910e31a
DTITLE=Country Trail - CD 5
DYEAR=1900
DGENRE=Country
TTITLE0=Jimmy Rodgers - No hard Times
TTITLE1=The Village Boys - Old Joe is at it Again
TTITLE2=Red Foley - Freight Train Boogie
TTITLE3=Bill Haley - A Yodeller´s Lullaby
TTITLE4=The Shelton Brothers - Aura Lee
TTITLE5=Tommy Mooney - Bingo Boogie
TTITLE6=Bill Mounce - I found a new Baby
TTITLE7=Tiny Colbert - Holes in my Soles
TTITLE8=Eddie Miller - Realease me
TTITLE9=Jackson Country Bran Owis - I Wonder how
TTITLE10=Johnny Bond - Mexicali Rose
TTITLE11=Tommy Scott - Gonna paint the Town Red
TTITLE12=Tex Williams - Smoke Smoke Smoke
TTITLE13=Tex Ritter - High Noon
TTITLE14=Jimmy Prince - Live and let Live
TTITLE15=Cliffie Stone - Peepin through the Keyhole
TTITLE16=Dave and Howard - My Bones gonna rise again
TTITLE17=Bill Monore - Rocky Road Blues
TTITLE18=Bill Monroe - Rocky Road Bluse
TTITLE19=Tommy Duncan - Chattanooga shoe shine Boy
TTITLE20=Hawkshaw Hawkins - Dog House Boogie
TTITLE21=Lefty Fritzell - If you´ve got the Money
TTITLE22=Ted Daffan - Born to Lose
TTITLE23=The Miller Brothers - Shadows on my Memories
TTITLE24=Fort Worth Doughboys - Sunbonnet Sue
TTITLE25=Ocie Stockard - Cow Towen Boogie
EXTD=
EXTT0=
EXTT1=
EXTT2=
EXTT3=
EXTT4=
EXTT5=
EXTT6=
EXTT7=
EXTT8=
EXTT9=
EXTT10=
EXTT11=
EXTT12=
EXTT13=
EXTT14=
EXTT15=
EXTT16=
EXTT17=
EXTT18=
EXTT19=
EXTT20=
EXTT21=
EXTT22=
EXTT23=
EXTT24=
EXTT25=
PLAYORDER=
